<svg width="13" height="13" viewBox="0 0 13 13" fill="none" xmlns="http://www.w3.org/2000/svg">
<path d="M9.04974 3.93704C6.74581 1.63311 3.68032 0.364258 0.417969 0.364258V2.76461C3.03916 2.76461 5.50188 3.78376 7.35247 5.63435C9.20302 7.48494 10.2222 9.94766 10.2222 12.5689H12.6226C12.6225 9.3065 11.3537 6.24097 9.04974 3.93704Z" fill="#191919"/>
<path d="M0.392578 4.42676V6.82711C3.55887 6.82711 6.13488 9.40308 6.13488 12.5694H8.53523C8.53523 8.07955 4.88248 4.42676 0.392578 4.42676Z" fill="#191919"/>
<path d="M2.09714 12.6357C3.04663 12.6357 3.81634 11.866 3.81634 10.9165C3.81634 9.96698 3.04663 9.19727 2.09714 9.19727C1.14764 9.19727 0.37793 9.96698 0.37793 10.9165C0.37793 11.866 1.14764 12.6357 2.09714 12.6357Z" fill="#191919"/>
</svg>
